<svg width="30" height="28" viewBox="0 0 30 28" fill="none" xmlns="http://www.w3.org/2000/svg">
<path fill-rule="evenodd" clip-rule="evenodd" d="M0.550781 1.4998C0.550781 1.11321 0.864182 0.799805 1.25078 0.799805H6.21068C6.54472 0.799805 6.83222 1.03583 6.89728 1.36348L8.02626 7.04965L28.7508 7.0496C28.9592 7.0496 29.1568 7.14249 29.2898 7.30299C29.4228 7.46349 29.4773 7.67491 29.4386 7.87972L27.4546 18.367L27.4536 18.3722C27.3087 19.1075 26.9117 19.7691 26.3306 20.2407C25.7512 20.7109 25.0258 20.962 24.2806 20.9493L12.0202 20.9493C11.2749 20.9621 10.5495 20.711 9.97007 20.2408C9.38901 19.7693 8.99201 19.1077 8.84708 18.3725L8.84701 18.3722L6.77251 7.92387C6.76625 7.89946 6.76128 7.87453 6.75767 7.84916L5.636 2.1998H1.25078C0.864182 2.1998 0.550781 1.8864 0.550781 1.4998ZM8.30423 8.44965L10.2204 18.1006L10.2206 18.1016C10.3025 18.5172 10.5266 18.8894 10.8522 19.1537C11.1777 19.4178 11.5841 19.5575 12.0002 19.5495L12.0138 19.5492V19.5493L24.2869 19.5493H24.3004L24.3004 19.5494C24.7165 19.5575 25.1229 19.4178 25.4484 19.1536C25.7734 18.8899 25.9973 18.5186 26.0796 18.1039L26.08 18.1015L27.9059 8.4496L8.30423 8.44965ZM19.0008 16.4998C19.0008 16.7759 18.7769 16.9998 18.5008 16.9998C18.2246 16.9998 18.0008 16.7759 18.0008 16.4998C18.0008 16.2237 18.2246 15.9998 18.5008 15.9998C18.7769 15.9998 19.0008 16.2237 19.0008 16.4998ZM12.4244 27.7498C13.8051 27.7498 14.9244 26.6305 14.9244 25.2498C14.9244 23.8691 13.8051 22.7498 12.4244 22.7498C11.0437 22.7498 9.92437 23.8691 9.92437 25.2498C9.92437 26.6305 11.0437 27.7498 12.4244 27.7498ZM23.5899 27.7498C24.9706 27.7498 26.0899 26.6305 26.0899 25.2498C26.0899 23.8691 24.9706 22.7498 23.5899 22.7498C22.2092 22.7498 21.0899 23.8691 21.0899 25.2498C21.0899 26.6305 22.2092 27.7498 23.5899 27.7498Z" fill="black"/>
</svg>
