<svg width="18" height="14" viewBox="0 0 18 14" fill="none" xmlns="http://www.w3.org/2000/svg">
<path d="M0 1.21429C0 0.681725 0.402944 0.25 0.9 0.25H17.1C17.5971 0.25 18 0.681725 18 1.21429C18 1.74685 17.5971 2.17857 17.1 2.17857H0.9C0.402944 2.17857 0 1.74685 0 1.21429Z" fill="black"/>
<path d="M0 7C0 6.46744 0.402944 6.03571 0.9 6.03571H17.1C17.5971 6.03571 18 6.46744 18 7C18 7.53256 17.5971 7.96429 17.1 7.96429H0.9C0.402944 7.96429 0 7.53256 0 7Z" fill="black"/>
<path d="M0.9 11.8214C0.402944 11.8214 0 12.2532 0 12.7857C0 13.3183 0.402944 13.75 0.9 13.75H17.1C17.5971 13.75 18 13.3183 18 12.7857C18 12.2532 17.5971 11.8214 17.1 11.8214H0.9Z" fill="black"/>
</svg>
