<svg width="30" height="28" viewBox="0 0 30 28" fill="none" xmlns="http://www.w3.org/2000/svg">
<path d="M17.028 3.16372L17.0282 3.1636C17.6979 2.45941 18.4912 1.90275 19.3617 1.52365C20.2322 1.14459 21.1638 0.95 22.1038 0.95C23.0438 0.95 23.9755 1.14459 24.8459 1.52365C25.7165 1.90275 26.5098 2.45941 27.1795 3.1636L27.1797 3.16384C27.8498 3.86778 28.3831 4.70544 28.7476 5.62981C29.112 6.55423 29.3 7.54618 29.3 8.54869C29.3 9.5512 29.112 10.5431 28.7476 11.4676C28.3831 12.3919 27.8498 13.2296 27.1797 13.9335L27.1796 13.9337L25.6583 15.5325L14.9996 26.7345L4.34094 15.5325L2.81963 13.9337C1.46612 12.5111 0.7 10.5747 0.7 8.54869C0.7 6.52268 1.46612 4.58624 2.81963 3.16372C4.17202 1.74239 5.99862 0.950807 7.89541 0.950807C9.79221 0.950807 11.6188 1.74239 12.9712 3.16372L14.4925 4.76258C14.6246 4.90144 14.8079 4.98005 14.9996 4.98005C15.1913 4.98005 15.3746 4.90144 15.5067 4.76258L17.028 3.16372Z" stroke="black" stroke-width="1.4" stroke-linecap="round" stroke-linejoin="round"/>
</svg>
