<svg width="44" height="44" viewBox="0 0 44 44" fill="none" xmlns="http://www.w3.org/2000/svg">
<path fill-rule="evenodd" clip-rule="evenodd" d="M43.2642 23.7764C44.2453 22.7953 44.2453 21.2047 43.2642 20.2236L23.7764 0.735796C22.7953 -0.245266 21.2047 -0.245265 20.2236 0.735797L0.735796 20.2236C-0.245266 21.2047 -0.245265 22.7953 0.735796 23.7764L20.2236 43.2642C21.2047 44.2453 22.7953 44.2453 23.7764 43.2642L43.2642 23.7764ZM34.8912 23.7764C35.8722 22.7953 35.8722 21.2047 34.8912 20.2236L23.7764 9.10881C22.7953 8.12775 21.2047 8.12775 20.2236 9.10881L9.10881 20.2236C8.12775 21.2047 8.12775 22.7953 9.10881 23.7764L20.2236 34.8912C21.2047 35.8722 22.7953 35.8722 23.7764 34.8912L34.8912 23.7764Z" fill="#FEC80B"/>
</svg>
