<svg width="20" height="20" viewBox="0 0 20 20" fill="none" xmlns="http://www.w3.org/2000/svg">
<path fill-rule="evenodd" clip-rule="evenodd" d="M8.09159 0.375C3.82984 0.375 0.375 3.90334 0.375 8.25578C0.375 12.6082 3.82984 16.1366 8.09159 16.1366C9.94169 16.1366 11.6397 15.4716 12.969 14.363L18.2766 19.4056C18.6009 19.7137 19.1084 19.695 19.4102 19.3638C19.7119 19.0326 19.6936 18.5142 19.3692 18.2061L14.1006 13.2005C15.1687 11.8483 15.8082 10.1283 15.8082 8.25578C15.8082 3.90335 12.3534 0.375 8.09159 0.375ZM1.97917 8.25578C1.97917 4.80815 4.71579 2.0133 8.09159 2.0133C11.4674 2.0133 14.204 4.80815 14.204 8.25578C14.204 11.7034 11.4674 14.4983 8.09159 14.4983C4.71579 14.4983 1.97917 11.7034 1.97917 8.25578Z" fill="black"/>
</svg>
